<svg width="40" height="55" viewBox="0 0 40 55" fill="none" xmlns="http://www.w3.org/2000/svg">
<path d="M8.19238 42.8906V50H6.73242V42.8906H8.19238ZM11.2535 45.8447V50H9.84727V44.7168H11.1656L11.2535 45.8447ZM11.0484 47.1729H10.6676C10.6676 46.7822 10.718 46.4307 10.8189 46.1182C10.9199 45.8024 11.0615 45.5339 11.2438 45.3125C11.426 45.0879 11.6425 44.917 11.8932 44.7998C12.1471 44.6794 12.4303 44.6191 12.7428 44.6191C12.9902 44.6191 13.2164 44.6549 13.4215 44.7266C13.6266 44.7982 13.8023 44.9121 13.9488 45.0684C14.0986 45.2246 14.2125 45.4313 14.2906 45.6885C14.372 45.9456 14.4127 46.2598 14.4127 46.6309V50H12.9967V46.626C12.9967 46.3916 12.9641 46.2093 12.899 46.0791C12.8339 45.9489 12.7379 45.8577 12.6109 45.8057C12.4872 45.7503 12.3342 45.7227 12.152 45.7227C11.9632 45.7227 11.7988 45.7601 11.6588 45.835C11.5221 45.9098 11.4081 46.014 11.317 46.1475C11.2291 46.2777 11.1624 46.4307 11.1168 46.6064C11.0712 46.7822 11.0484 46.971 11.0484 47.1729ZM17.3664 44.7168V50H15.9553V44.7168H17.3664ZM15.8674 43.3398C15.8674 43.1348 15.939 42.9655 16.0822 42.832C16.2255 42.6986 16.4175 42.6318 16.6584 42.6318C16.896 42.6318 17.0865 42.6986 17.2297 42.832C17.3762 42.9655 17.4494 43.1348 17.4494 43.3398C17.4494 43.5449 17.3762 43.7142 17.2297 43.8477C17.0865 43.9811 16.896 44.0479 16.6584 44.0479C16.4175 44.0479 16.2255 43.9811 16.0822 43.8477C15.939 43.7142 15.8674 43.5449 15.8674 43.3398ZM21.1111 48.999C21.2837 48.999 21.4367 48.9665 21.5701 48.9014C21.7036 48.833 21.8077 48.7386 21.8826 48.6182C21.9607 48.4945 22.0014 48.3496 22.0047 48.1836H23.3279C23.3247 48.5547 23.2254 48.8851 23.0301 49.1748C22.8348 49.4613 22.5727 49.6875 22.2439 49.8535C21.9152 50.0163 21.5473 50.0977 21.1404 50.0977C20.7303 50.0977 20.3722 50.0293 20.0662 49.8926C19.7635 49.7559 19.5112 49.5671 19.3094 49.3262C19.1076 49.082 18.9562 48.7988 18.8553 48.4766C18.7544 48.151 18.7039 47.8027 18.7039 47.4316V47.29C18.7039 46.9157 18.7544 46.5674 18.8553 46.2451C18.9562 45.9196 19.1076 45.6364 19.3094 45.3955C19.5112 45.1514 19.7635 44.9609 20.0662 44.8242C20.3689 44.6875 20.7238 44.6191 21.1307 44.6191C21.5636 44.6191 21.9428 44.7021 22.2684 44.8682C22.5971 45.0342 22.8543 45.2718 23.0398 45.5811C23.2286 45.887 23.3247 46.25 23.3279 46.6699H22.0047C22.0014 46.4941 21.964 46.3346 21.8924 46.1914C21.824 46.0482 21.7231 45.9342 21.5896 45.8496C21.4594 45.7617 21.2983 45.7178 21.1062 45.7178C20.9012 45.7178 20.7335 45.7617 20.6033 45.8496C20.4731 45.9342 20.3722 46.0514 20.3006 46.2012C20.229 46.3477 20.1785 46.5153 20.1492 46.7041C20.1232 46.8896 20.1102 47.085 20.1102 47.29V47.4316C20.1102 47.6367 20.1232 47.8337 20.1492 48.0225C20.1753 48.2113 20.2241 48.3789 20.2957 48.5254C20.3706 48.6719 20.4731 48.7874 20.6033 48.8721C20.7335 48.9567 20.9028 48.999 21.1111 48.999ZM26.0277 44.7168V50H24.6166V44.7168H26.0277ZM24.5287 43.3398C24.5287 43.1348 24.6003 42.9655 24.7436 42.832C24.8868 42.6986 25.0788 42.6318 25.3197 42.6318C25.5574 42.6318 25.7478 42.6986 25.891 42.832C26.0375 42.9655 26.1107 43.1348 26.1107 43.3398C26.1107 43.5449 26.0375 43.7142 25.891 43.8477C25.7478 43.9811 25.5574 44.0479 25.3197 44.0479C25.0788 44.0479 24.8868 43.9811 24.7436 43.8477C24.6003 43.7142 24.5287 43.5449 24.5287 43.3398ZM27.3652 47.4121V47.3096C27.3652 46.9222 27.4206 46.5658 27.5312 46.2402C27.6419 45.9115 27.8031 45.6266 28.0146 45.3857C28.2262 45.1449 28.4867 44.9577 28.7959 44.8242C29.1051 44.6875 29.46 44.6191 29.8604 44.6191C30.2607 44.6191 30.6172 44.6875 30.9297 44.8242C31.2422 44.9577 31.5042 45.1449 31.7158 45.3857C31.9307 45.6266 32.0934 45.9115 32.2041 46.2402C32.3148 46.5658 32.3701 46.9222 32.3701 47.3096V47.4121C32.3701 47.7962 32.3148 48.1527 32.2041 48.4814C32.0934 48.807 31.9307 49.0918 31.7158 49.3359C31.5042 49.5768 31.2438 49.764 30.9346 49.8975C30.6253 50.0309 30.2705 50.0977 29.8701 50.0977C29.4697 50.0977 29.1133 50.0309 28.8008 49.8975C28.4915 49.764 28.2295 49.5768 28.0146 49.3359C27.8031 49.0918 27.6419 48.807 27.5312 48.4814C27.4206 48.1527 27.3652 47.7962 27.3652 47.4121ZM28.7715 47.3096V47.4121C28.7715 47.6335 28.791 47.8402 28.8301 48.0322C28.8691 48.2243 28.931 48.3936 29.0156 48.54C29.1035 48.6833 29.2174 48.7956 29.3574 48.877C29.4974 48.9583 29.6683 48.999 29.8701 48.999C30.0654 48.999 30.2331 48.9583 30.373 48.877C30.513 48.7956 30.6253 48.6833 30.71 48.54C30.7946 48.3936 30.8564 48.2243 30.8955 48.0322C30.9378 47.8402 30.959 47.6335 30.959 47.4121V47.3096C30.959 47.0947 30.9378 46.8929 30.8955 46.7041C30.8564 46.512 30.793 46.3428 30.7051 46.1963C30.6204 46.0465 30.5081 45.9294 30.3682 45.8447C30.2282 45.7601 30.0589 45.7178 29.8604 45.7178C29.6618 45.7178 29.4925 45.7601 29.3525 45.8447C29.2158 45.9294 29.1035 46.0465 29.0156 46.1963C28.931 46.3428 28.8691 46.512 28.8301 46.7041C28.791 46.8929 28.7715 47.0947 28.7715 47.3096Z" fill="white"/>
<mask id="mask0_53_7322" style="mask-type:alpha" maskUnits="userSpaceOnUse" x="0" y="0" width="40" height="40">
<rect width="40" height="40" fill="#D9D9D9"/>
</mask>
<g mask="url(#mask0_53_7322)">
<path d="M7.75004 34.2221V17.9721L2.87504 21.7083L0.777954 18.9446L20 4.11124L27.0417 9.5279V5.7779H32.2084V13.4862L39.2221 18.9446L37.0834 21.7083L32.2084 17.9446V34.2221H21.6667V23.6667H18.3334V34.2221H7.75004ZM11.25 30.7221H14.8334V20.1667H25.1667V30.7221H28.7221V15.25L20 8.49999L11.25 15.25V30.7221ZM16.3055 16.5137H23.6946C23.6946 15.5415 23.3257 14.7407 22.588 14.1112C21.8502 13.4815 20.9895 13.1667 20.0059 13.1667C19.0223 13.1667 18.1596 13.48 17.418 14.1067C16.6763 14.7333 16.3055 15.5357 16.3055 16.5137Z" fill="white"/>
</g>
</svg>
