<svg width="101" height="35" viewBox="0 0 101 35" fill="none" xmlns="http://www.w3.org/2000/svg">
<path d="M11.6156 11.4581C11.6156 8.27244 9.71287 5.83261 6.09801 5.83261C2.95804 5.83261 0 8.13462 0 11.97C0 15.8054 2.84306 18.1208 6.49651 18.1208C8.06689 18.1208 9.80423 17.6089 11.1431 16.7504L9.99088 14.6563C8.95131 15.1816 8.03539 15.4707 6.9714 15.4707C5.05057 15.4707 3.80781 14.7107 3.46522 13.0143H11.4699C11.5171 12.7245 11.6156 12.0944 11.6156 11.4581ZM3.50618 10.6839C3.85585 9.21199 4.84817 8.47642 6.21299 8.47642C7.57782 8.47642 8.35592 9.23404 8.53391 10.6839H3.50618Z" fill="white"/>
<path d="M12.3788 16.3251L13.8562 14.1562C15.299 15.0501 16.9096 15.5455 18.5855 15.5455C19.8755 15.5455 20.4449 15.117 20.4449 14.5406C20.4449 13.8877 19.8763 13.649 17.5758 13.1639C14.3878 12.4811 13.1207 11.3124 13.1207 9.5018C13.1207 7.31792 15.1604 5.83182 18.5067 5.83182C20.5961 5.83182 22.3618 6.65323 23.5809 7.43291L22.0223 9.5207C20.8394 8.80561 19.4825 8.40081 18.1885 8.40081C17.1033 8.40081 16.5654 8.78828 16.5654 9.33878C16.5654 9.99009 17.2852 10.1429 19.273 10.5878C22.8894 11.3974 23.8959 12.4283 23.8959 14.3366C23.8959 16.459 21.8719 18.1208 18.1106 18.1208C16.0196 18.1208 13.8578 17.3112 12.3788 16.3251Z" fill="white"/>
<path d="M24.8063 16.3251L26.2837 14.1562C27.7265 15.0501 29.3371 15.5455 31.013 15.5455C32.303 15.5455 32.8724 15.117 32.8724 14.5406C32.8724 13.8877 32.3038 13.649 30.0033 13.1639C26.8153 12.4811 25.5481 11.3124 25.5481 9.5018C25.5481 7.31792 27.5879 5.83182 30.9342 5.83182C33.0236 5.83182 34.7893 6.65323 36.0084 7.43291L34.4498 9.5207C33.2669 8.80561 31.91 8.40081 30.616 8.40081C29.5308 8.40081 28.9929 8.78828 28.9929 9.33878C28.9929 9.99009 29.7127 10.1429 31.7005 10.5878C35.3169 11.3974 36.3234 12.4283 36.3234 14.3366C36.3234 16.459 34.2994 18.1208 30.5381 18.1208C28.4471 18.1208 26.2853 17.3112 24.8063 16.3251Z" fill="white"/>
<path d="M48.8976 11.4581C48.8976 8.27244 46.9948 5.83261 43.38 5.83261C40.24 5.83261 37.282 8.13462 37.282 11.97C37.282 15.8054 40.125 18.1208 43.7793 18.1208C45.3489 18.1208 47.087 17.6089 48.425 16.7504L47.2736 14.6563C46.2341 15.1816 45.3174 15.4707 44.2542 15.4707C42.3325 15.4707 41.0898 14.7107 40.7472 13.0143H48.7527C48.7991 12.7245 48.8976 12.0944 48.8976 11.4581ZM40.7882 10.6839C41.1378 9.21199 42.1301 8.47642 43.4958 8.47642C44.8614 8.47642 45.6379 9.23404 45.8151 10.6839H40.7882Z" fill="white"/>
<path d="M50.1119 6.11613H52.9455L53.196 7.67863H53.2905C54.308 6.68238 55.5972 5.83261 57.3417 5.83261C59.9902 5.83261 61.1573 7.64398 61.1573 10.5997V17.8372H57.6787V11.047C57.6787 9.48685 57.2298 8.79459 55.9595 8.79459C55.0325 8.79459 54.4009 9.2238 53.589 10.0145V17.8365H50.1104V6.11534L50.1119 6.11613Z" fill="white"/>
<path d="M77.0862 0C75.745 0 74.7771 0.887569 74.7771 2.16025C74.7771 3.43293 75.745 4.28585 77.0862 4.28585C78.4274 4.28585 79.3961 3.43923 79.3961 2.16025C79.3961 0.881269 78.4274 0 77.0862 0Z" fill="white"/>
<path d="M78.9835 6.1161V17.8372H75.5057V8.84103H68.5894V12.9355C68.5894 14.7185 69.3431 15.3895 71.0521 15.3895C71.9278 15.3895 72.676 15.2107 73.3667 14.9721L73.9967 17.4868C72.9572 17.7971 71.727 18.1207 70.1669 18.1207C66.437 18.1207 65.1116 16.0542 65.1116 12.9796V8.84103H62.1575V6.25156L65.2675 6.1161L65.7148 2.53275H68.5894V6.1161H78.9835Z" fill="white"/>
<path d="M79.9719 14.5878C79.9719 11.9613 82.1431 10.6241 87.6812 10.2878C87.5591 9.23956 86.7692 8.5985 85.1957 8.5985C84.0655 8.5985 82.9417 9.0348 81.6226 9.69634L80.3822 7.41875C82.0069 6.49259 83.8757 5.8334 85.8675 5.8334C89.1634 5.8334 91.159 7.54633 91.159 11.1384V17.838H88.3183L88.0679 16.5173H87.9797C86.7952 17.4073 85.3296 18.1216 83.8246 18.1216C81.4532 18.1216 79.9711 16.5583 79.9711 14.5886L79.9719 14.5878ZM87.6812 14.3082V12.3882C84.2325 12.5615 83.3071 13.3088 83.3071 14.3098C83.3071 15.0635 83.9427 15.4305 84.9248 15.4305C85.9683 15.4305 86.8519 14.9525 87.6812 14.309V14.3082Z" fill="white"/>
<path d="M92.5019 13.2529V4.01258H88.813V1.28766H95.9797V13.3947C95.9797 14.8438 96.9114 15.3139 97.8895 15.3139C98.4313 15.3139 99.0039 15.1998 99.7158 14.9304L100.484 17.486C99.2677 17.8837 98.444 18.12 96.987 18.12C94.0352 18.12 92.5011 16.2251 92.5011 13.2521L92.5019 13.2529Z" fill="white"/>
<path d="M32.3731 34.0348H31.5659C30.0585 32.4432 29.3048 30.6798 29.3048 28.7456C29.3048 26.8114 30.0585 25.1434 31.5659 23.4816H32.3731C31.076 25.0363 30.4271 26.7949 30.4271 28.7582C30.4271 30.7216 31.076 32.3896 32.3731 34.0348Z" fill="#575A5E"/>
<path d="M34.4185 33.9962V23.4981H38.5712C39.6171 23.4981 40.3928 23.7541 40.8976 24.2668C41.4025 24.7795 41.6553 25.3733 41.6553 26.0498C41.6553 27.2382 41.0347 28.0274 39.7943 28.4172C40.533 28.607 41.0811 28.9456 41.4403 29.4331C41.7994 29.9206 41.9789 30.4719 41.9789 31.0878C41.9789 31.9139 41.7009 32.6054 41.1441 33.1622C40.5881 33.719 39.7305 33.997 38.5712 33.997H34.4185V33.9962ZM35.688 27.9974H37.9719C38.9201 27.9974 39.5533 27.8171 39.8715 27.4556C40.1896 27.0941 40.3479 26.6696 40.3479 26.1829C40.3479 25.6962 40.177 25.3111 39.8368 25.0142C39.4958 24.7165 38.987 24.5684 38.3105 24.5684H35.688V27.9982V27.9974ZM35.688 32.8424H38.5027C39.1894 32.8424 39.7203 32.6755 40.0943 32.3423C40.4684 32.0092 40.6559 31.5761 40.6559 31.0429C40.6559 30.6688 40.5716 30.3215 40.4023 30.001C40.2329 29.6804 39.9943 29.4331 39.6872 29.2591C39.3792 29.085 38.9209 28.9976 38.3105 28.9976H35.688V32.8432V32.8424Z" fill="#B4B0B5"/>
<path d="M49.908 33.9962H48.7156C48.6692 33.7505 48.6235 33.2835 48.577 32.5967C48.0438 33.6733 47.1358 34.212 45.8545 34.212C44.9826 34.212 44.314 33.9813 43.847 33.519C43.3808 33.0567 43.1469 32.5022 43.1469 31.8549C43.1469 31.0689 43.48 30.4239 44.147 29.9175C44.8133 29.4119 45.9466 29.1591 47.5461 29.1591C47.7611 29.1591 48.1053 29.1693 48.577 29.1898C48.577 28.5747 48.5298 28.1298 48.4345 27.8557C48.3392 27.5816 48.1383 27.3619 47.8304 27.1981C47.5225 27.0343 47.1177 26.9524 46.6152 26.9524C45.3898 26.9524 44.6771 27.4186 44.477 28.3518L43.3619 28.1597C43.6336 26.7295 44.7771 26.0136 46.7916 26.0136C47.8635 26.0136 48.6235 26.2507 49.0724 26.7248C49.5213 27.1989 49.745 28.0211 49.745 29.1898V32.4889C49.745 33.0378 49.7985 33.5402 49.9064 33.9962H49.908ZM48.5778 30.1128C48.0856 30.0821 47.7115 30.0663 47.4548 30.0663C46.501 30.0663 45.7599 30.2231 45.2323 30.5365C44.7038 30.85 44.44 31.3075 44.44 31.9084C44.44 32.2888 44.5826 32.6125 44.8669 32.8803C45.1512 33.1472 45.5631 33.2811 46.101 33.2811C46.8287 33.2811 47.428 33.0165 47.8966 32.4873C48.3659 31.958 48.6006 31.3359 48.6006 30.6216C48.6006 30.4775 48.5928 30.3081 48.5778 30.1128Z" fill="#B4B0B5"/>
<path d="M58.2835 33.9962H57.1534V29.0047C57.1534 28.2873 56.9966 27.7817 56.684 27.4895C56.3713 27.1973 55.9917 27.0508 55.546 27.0508C54.9309 27.0508 54.4143 27.2965 53.9961 27.7895C53.5779 28.2817 53.3692 28.9307 53.3692 29.7356V33.9962H52.1619V26.2286H53.2849V27.6588C53.9157 26.5617 54.7332 26.0128 55.7381 26.0128C56.3178 26.0128 56.8108 26.1624 57.2187 26.4625C57.6267 26.7626 57.9055 27.0996 58.0567 27.4737C58.2079 27.8478 58.2835 28.5251 58.2835 29.504V33.9954V33.9962Z" fill="#B4B0B5"/>
<path d="M67.1128 33.9962H65.8614L63.5909 29.6591L61.9063 31.5965V33.9962H60.699V23.4981H61.9063V30.2278L65.5141 26.2286H66.8049L64.3784 28.9559L67.1128 33.9962Z" fill="#B4B0B5"/>
<path d="M68.1122 23.4816H68.9123C70.4252 25.0733 71.1813 26.8366 71.1813 28.7708C71.1813 30.705 70.4252 32.3731 68.9123 34.0348H68.1122C69.4093 32.4802 70.0582 30.7216 70.0582 28.7582C70.0582 26.7949 69.4093 25.1268 68.1122 23.4816Z" fill="#575A5E"/>
</svg>