<svg width="60" height="69" viewBox="0 0 60 43" fill="none" xmlns="http://www.w3.org/2000/svg">
<path d="M59.25 16.75V34.6667C59.25 38.5902 55.642 41.9167 51 41.9167H9C4.35817 41.9167 0.75 38.5902 0.75 34.6667V16.75H59.25ZM48 25.9167H39C37.0144 25.9167 35.25 27.3657 35.25 29.3333C35.25 31.3009 37.0144 32.75 39 32.75H48C49.9856 32.75 51.75 31.3009 51.75 29.3333C51.75 27.3657 49.9856 25.9167 48 25.9167ZM51 0.75C55.642 0.75 59.25 4.07654 59.25 8V9.91667H0.75V8C0.75 4.07655 4.35818 0.75 9 0.75H51Z" stroke="#242054" stroke-width="1.5"/>
</svg>