                <svg width="62" height="69" viewBox="0 0 62 69" fill="none" xmlns="http://www.w3.org/2000/svg">
                <path d="M15.15 1H46.8499C50.7129 1 52.6443 1 54.202 1.54203C57.1559 2.56987 59.4751 4.9573 60.4735 7.9982C61 9.60183 61 11.5902 61 15.5669V62.2473C61 65.108 57.7167 66.626 55.6397 64.7253C54.4194 63.6087 52.5806 63.6087 51.3603 64.7253L49.75 66.199C47.6114 68.156 44.3886 68.156 42.25 66.199C40.1114 64.242 36.8887 64.242 34.75 66.199C32.6113 68.156 29.3887 68.156 27.25 66.199C25.1113 64.242 21.8887 64.242 19.75 66.199C17.6113 68.156 14.3887 68.156 12.25 66.199L10.6397 64.7253C9.41933 63.6087 7.58067 63.6087 6.36034 64.7253C4.28334 66.626 1 65.108 1 62.2473V15.5669C1 11.5902 1 9.60183 1.52667 7.9982C2.52501 4.9573 4.844 2.56987 7.798 1.54203C9.35567 1 11.287 1 15.15 1Z" fill="#E4E7F3" stroke="#1C274C" stroke-width="1.5"/>
                <path d="M39.3333 29L34.5713 34.3333L22.6666 21" stroke="#1C274C" stroke-width="1.5" stroke-linecap="round" stroke-linejoin="round"/>
                <path d="M46 46H16" stroke="#575A5E" stroke-width="1.5" stroke-linecap="round"/>
                </svg>
