                <svg width="60" height="60" viewBox="0 0 60 60" fill="none" xmlns="http://www.w3.org/2000/svg">
<path d="M22.0889 0.874012L22.089 0.874033C22.789 1.14629 23.25 1.82032 23.25 2.57154V20.5715V21.3215H24H57.4285C58.4345 21.3215 59.25 22.137 59.25 23.1428C59.25 24.1487 58.4344 24.9643 57.4285 24.9643H2.5715C1.8491 24.9643 1.1951 24.5376 0.904248 23.8763L0.904216 23.8762C0.613408 23.2153 0.740711 22.4446 1.2288 21.9122L1.22882 21.9122L20.0859 1.34077L20.086 1.34075C20.5935 0.787046 21.3889 0.601698 22.0889 0.874012Z" stroke="#242054" stroke-width="1.5"/>
<path d="M36.75 39.4285V38.6785H36H2.57143C1.5655 38.6785 0.75 37.863 0.75 36.8571C0.75 35.8512 1.5655 35.0357 2.57143 35.0357H57.4285C58.1506 35.0357 58.8047 35.4625 59.0957 36.1237C59.3866 36.7849 59.2593 37.5553 58.7712 38.0881L39.9142 58.6593C39.4067 59.213 38.6113 59.3984 37.911 59.1261C37.2112 58.8539 36.75 58.1797 36.75 57.4285V39.4285Z" stroke="#575A5E" stroke-width="1.5"/>
                </svg>                
