<svg width="47" height="55" viewBox="0 0 47 55" fill="none" xmlns="http://www.w3.org/2000/svg">
<path d="M3.45215 42.8906V50H2.52441V42.8906H3.45215ZM5.7373 42.8906V43.6621H0.244141V42.8906H5.7373ZM7.5875 45.5469V50H6.68418V44.7168H7.56309L7.5875 45.5469ZM9.23789 44.6875L9.23301 45.5273C9.15814 45.5111 9.08652 45.5013 9.01816 45.498C8.95306 45.4915 8.87819 45.4883 8.79355 45.4883C8.58522 45.4883 8.4013 45.5208 8.2418 45.5859C8.08229 45.651 7.9472 45.7422 7.83652 45.8594C7.72585 45.9766 7.63796 46.1165 7.57285 46.2793C7.511 46.4388 7.47031 46.6146 7.45078 46.8066L7.19688 46.9531C7.19688 46.6341 7.2278 46.3346 7.28965 46.0547C7.35475 45.7747 7.45404 45.5273 7.5875 45.3125C7.72096 45.0944 7.89023 44.9251 8.09531 44.8047C8.30365 44.681 8.55104 44.6191 8.8375 44.6191C8.9026 44.6191 8.97747 44.6273 9.06211 44.6436C9.14674 44.6566 9.20534 44.6712 9.23789 44.6875ZM13.3928 49.0967V46.377C13.3928 46.1686 13.3505 45.988 13.2658 45.835C13.1844 45.6787 13.0607 45.5583 12.8947 45.4736C12.7287 45.389 12.5236 45.3467 12.2795 45.3467C12.0516 45.3467 11.8514 45.3857 11.6789 45.4639C11.5096 45.542 11.3762 45.6445 11.2785 45.7715C11.1841 45.8984 11.1369 46.0352 11.1369 46.1816H10.2336C10.2336 45.9928 10.2824 45.8057 10.3801 45.6201C10.4777 45.4346 10.6177 45.2669 10.8 45.1172C10.9855 44.9642 11.2069 44.8438 11.4641 44.7559C11.7245 44.6647 12.0142 44.6191 12.3332 44.6191C12.7173 44.6191 13.0559 44.6842 13.3488 44.8145C13.6451 44.9447 13.8762 45.1416 14.0422 45.4053C14.2115 45.6657 14.2961 45.9928 14.2961 46.3867V48.8477C14.2961 49.0234 14.3107 49.2106 14.34 49.4092C14.3726 49.6077 14.4198 49.7786 14.4816 49.9219V50H13.5393C13.4937 49.8958 13.4579 49.7575 13.4318 49.585C13.4058 49.4092 13.3928 49.2464 13.3928 49.0967ZM13.549 46.7969L13.5588 47.4316H12.6457C12.3885 47.4316 12.159 47.4528 11.9572 47.4951C11.7554 47.5342 11.5861 47.5944 11.4494 47.6758C11.3127 47.7572 11.2085 47.8597 11.1369 47.9834C11.0653 48.1038 11.0295 48.2454 11.0295 48.4082C11.0295 48.5742 11.0669 48.7256 11.1418 48.8623C11.2167 48.999 11.329 49.1081 11.4787 49.1895C11.6317 49.2676 11.8189 49.3066 12.0402 49.3066C12.3169 49.3066 12.5611 49.248 12.7727 49.1309C12.9842 49.0137 13.1519 48.8704 13.2756 48.7012C13.4025 48.5319 13.4709 48.3675 13.4807 48.208L13.8664 48.6426C13.8436 48.7793 13.7818 48.9307 13.6809 49.0967C13.5799 49.2627 13.4449 49.4222 13.2756 49.5752C13.1096 49.7249 12.911 49.8503 12.6799 49.9512C12.452 50.0488 12.1949 50.0977 11.9084 50.0977C11.5503 50.0977 11.2362 50.0277 10.966 49.8877C10.6991 49.7477 10.4908 49.5605 10.341 49.3262C10.1945 49.0885 10.1213 48.8232 10.1213 48.5303C10.1213 48.2471 10.1766 47.998 10.2873 47.7832C10.398 47.5651 10.5575 47.3844 10.7658 47.2412C10.9742 47.0947 11.2248 46.984 11.5178 46.9092C11.8107 46.8343 12.1379 46.7969 12.4992 46.7969H13.549ZM17.0203 45.8447V50H16.117V44.7168H16.9715L17.0203 45.8447ZM16.8055 47.1582L16.4295 47.1436C16.4327 46.7822 16.4865 46.4486 16.5906 46.1426C16.6948 45.8333 16.8413 45.5648 17.0301 45.3369C17.2189 45.109 17.4435 44.9333 17.7039 44.8096C17.9676 44.6826 18.2589 44.6191 18.5779 44.6191C18.8383 44.6191 19.0727 44.6549 19.2811 44.7266C19.4894 44.7949 19.6668 44.9056 19.8133 45.0586C19.963 45.2116 20.077 45.4102 20.1551 45.6543C20.2332 45.8952 20.2723 46.1898 20.2723 46.5381V50H19.3641V46.5283C19.3641 46.2516 19.3234 46.0303 19.242 45.8643C19.1606 45.695 19.0418 45.5729 18.8855 45.498C18.7293 45.4199 18.5372 45.3809 18.3094 45.3809C18.0848 45.3809 17.8797 45.4281 17.6941 45.5225C17.5118 45.6169 17.354 45.7471 17.2205 45.9131C17.0903 46.0791 16.9878 46.2695 16.9129 46.4844C16.8413 46.696 16.8055 46.9206 16.8055 47.1582ZM25.1205 48.5986C25.1205 48.4684 25.0912 48.348 25.0326 48.2373C24.9773 48.1234 24.8617 48.0208 24.6859 47.9297C24.5134 47.8353 24.253 47.7539 23.9047 47.6855C23.6117 47.6237 23.3464 47.5505 23.1088 47.4658C22.8744 47.3812 22.6742 47.2786 22.5082 47.1582C22.3454 47.0378 22.2201 46.8962 22.1322 46.7334C22.0443 46.5706 22.0004 46.3802 22.0004 46.1621C22.0004 45.9538 22.046 45.7568 22.1371 45.5713C22.2315 45.3857 22.3633 45.2214 22.5326 45.0781C22.7051 44.9349 22.9118 44.8226 23.1527 44.7412C23.3936 44.6598 23.6622 44.6191 23.9584 44.6191C24.3816 44.6191 24.7429 44.694 25.0424 44.8438C25.3419 44.9935 25.5714 45.1937 25.7309 45.4443C25.8904 45.6917 25.9701 45.9668 25.9701 46.2695H25.0668C25.0668 46.123 25.0229 45.9814 24.935 45.8447C24.8503 45.7048 24.725 45.5892 24.559 45.498C24.3962 45.4069 24.196 45.3613 23.9584 45.3613C23.7077 45.3613 23.5043 45.4004 23.348 45.4785C23.1951 45.5534 23.0827 45.6494 23.0111 45.7666C22.9428 45.8838 22.9086 46.0075 22.9086 46.1377C22.9086 46.2354 22.9249 46.3232 22.9574 46.4014C22.9932 46.4762 23.0551 46.5462 23.143 46.6113C23.2309 46.6732 23.3546 46.7318 23.5141 46.7871C23.6736 46.8424 23.877 46.8978 24.1244 46.9531C24.5574 47.0508 24.9138 47.168 25.1938 47.3047C25.4737 47.4414 25.682 47.609 25.8188 47.8076C25.9555 48.0062 26.0238 48.2471 26.0238 48.5303C26.0238 48.7614 25.975 48.973 25.8773 49.165C25.7829 49.3571 25.6446 49.5231 25.4623 49.6631C25.2833 49.7998 25.0684 49.9072 24.8178 49.9854C24.5704 50.0602 24.2921 50.0977 23.9828 50.0977C23.5173 50.0977 23.1234 50.0146 22.8012 49.8486C22.4789 49.6826 22.2348 49.4678 22.0688 49.2041C21.9027 48.9404 21.8197 48.6621 21.8197 48.3691H22.7279C22.741 48.6165 22.8126 48.8135 22.9428 48.96C23.073 49.1032 23.2325 49.2057 23.4213 49.2676C23.6101 49.3262 23.7973 49.3555 23.9828 49.3555C24.2302 49.3555 24.4369 49.3229 24.6029 49.2578C24.7722 49.1927 24.9008 49.1032 24.9887 48.9893C25.0766 48.8753 25.1205 48.7451 25.1205 48.5986ZM28.958 50H28.0547V44.1602C28.0547 43.7793 28.123 43.4587 28.2598 43.1982C28.3997 42.9346 28.5999 42.736 28.8604 42.6025C29.1208 42.4658 29.43 42.3975 29.7881 42.3975C29.8923 42.3975 29.9964 42.404 30.1006 42.417C30.208 42.43 30.3122 42.4495 30.4131 42.4756L30.3643 43.2129C30.2959 43.1966 30.2178 43.1852 30.1299 43.1787C30.0452 43.1722 29.9606 43.1689 29.876 43.1689C29.6839 43.1689 29.5179 43.208 29.3779 43.2861C29.2412 43.361 29.137 43.4717 29.0654 43.6182C28.9938 43.7646 28.958 43.9453 28.958 44.1602V50ZM30.0811 44.7168V45.4102H27.2197V44.7168H30.0811ZM33.5621 50.0977C33.1943 50.0977 32.8606 50.0358 32.5611 49.9121C32.2649 49.7852 32.0094 49.6077 31.7945 49.3799C31.5829 49.152 31.4202 48.8818 31.3062 48.5693C31.1923 48.2568 31.1354 47.915 31.1354 47.5439V47.3389C31.1354 46.9092 31.1988 46.5267 31.3258 46.1914C31.4527 45.8529 31.6253 45.5664 31.8434 45.332C32.0615 45.0977 32.3089 44.9202 32.5855 44.7998C32.8622 44.6794 33.1487 44.6191 33.4449 44.6191C33.8225 44.6191 34.148 44.6842 34.4215 44.8145C34.6982 44.9447 34.9244 45.127 35.1002 45.3613C35.276 45.5924 35.4062 45.8659 35.4908 46.1816C35.5755 46.4941 35.6178 46.8359 35.6178 47.207V47.6123H31.6725V46.875H34.7145V46.8066C34.7014 46.5723 34.6526 46.3444 34.568 46.123C34.4866 45.9017 34.3564 45.7194 34.1773 45.5762C33.9983 45.4329 33.7542 45.3613 33.4449 45.3613C33.2398 45.3613 33.051 45.4053 32.8785 45.4932C32.706 45.5778 32.5579 45.7048 32.4342 45.874C32.3105 46.0433 32.2145 46.25 32.1461 46.4941C32.0777 46.7383 32.0436 47.0199 32.0436 47.3389V47.5439C32.0436 47.7946 32.0777 48.0306 32.1461 48.252C32.2177 48.4701 32.3202 48.6621 32.4537 48.8281C32.5904 48.9941 32.7548 49.1243 32.9469 49.2188C33.1422 49.3132 33.3635 49.3604 33.6109 49.3604C33.9299 49.3604 34.2001 49.2952 34.4215 49.165C34.6428 49.0348 34.8365 48.8607 35.0025 48.6426L35.5494 49.0771C35.4355 49.2497 35.2906 49.4141 35.1148 49.5703C34.9391 49.7266 34.7226 49.8535 34.4654 49.9512C34.2115 50.0488 33.9104 50.0977 33.5621 50.0977ZM37.9758 45.5469V50H37.0725V44.7168H37.9514L37.9758 45.5469ZM39.6262 44.6875L39.6213 45.5273C39.5464 45.5111 39.4748 45.5013 39.4064 45.498C39.3413 45.4915 39.2665 45.4883 39.1818 45.4883C38.9735 45.4883 38.7896 45.5208 38.6301 45.5859C38.4706 45.651 38.3355 45.7422 38.2248 45.8594C38.1141 45.9766 38.0262 46.1165 37.9611 46.2793C37.8993 46.4388 37.8586 46.6146 37.8391 46.8066L37.5852 46.9531C37.5852 46.6341 37.6161 46.3346 37.6779 46.0547C37.743 45.7747 37.8423 45.5273 37.9758 45.3125C38.1092 45.0944 38.2785 44.9251 38.4836 44.8047C38.6919 44.681 38.9393 44.6191 39.2258 44.6191C39.2909 44.6191 39.3658 44.6273 39.4504 44.6436C39.535 44.6566 39.5936 44.6712 39.6262 44.6875ZM41.8426 44.7168V50H40.9344V44.7168H41.8426ZM40.866 43.3154C40.866 43.1689 40.91 43.0452 40.9979 42.9443C41.089 42.8434 41.2225 42.793 41.3982 42.793C41.5708 42.793 41.7026 42.8434 41.7938 42.9443C41.8882 43.0452 41.9354 43.1689 41.9354 43.3154C41.9354 43.4554 41.8882 43.5758 41.7938 43.6768C41.7026 43.7744 41.5708 43.8232 41.3982 43.8232C41.2225 43.8232 41.089 43.7744 40.9979 43.6768C40.91 43.5758 40.866 43.4554 40.866 43.3154ZM44.5961 45.5469V50H43.6928V44.7168H44.5717L44.5961 45.5469ZM46.2465 44.6875L46.2416 45.5273C46.1667 45.5111 46.0951 45.5013 46.0268 45.498C45.9617 45.4915 45.8868 45.4883 45.8021 45.4883C45.5938 45.4883 45.4099 45.5208 45.2504 45.5859C45.0909 45.651 44.9558 45.7422 44.8451 45.8594C44.7344 45.9766 44.6465 46.1165 44.5814 46.2793C44.5196 46.4388 44.4789 46.6146 44.4594 46.8066L44.2055 46.9531C44.2055 46.6341 44.2364 46.3346 44.2982 46.0547C44.3633 45.7747 44.4626 45.5273 44.5961 45.3125C44.7296 45.0944 44.8988 44.9251 45.1039 44.8047C45.3122 44.681 45.5596 44.6191 45.8461 44.6191C45.9112 44.6191 45.9861 44.6273 46.0707 44.6436C46.1553 44.6566 46.2139 44.6712 46.2465 44.6875Z" fill="white"/>
<mask id="mask0_107_926" style="mask-type:alpha" maskUnits="userSpaceOnUse" x="4" y="0" width="40" height="40">
<rect x="4" width="40" height="40" fill="white"/>
</mask>
<g mask="url(#mask0_107_926)">
<path d="M15.7221 33.3333L9 26.6112L15.7221 19.8887L17.6804 21.8333L14.2917 25.2221H24.5554V28H14.2917L17.6667 31.3887L15.7221 33.3333ZM28.7221 28C28.3426 28 28.0163 27.8635 27.7429 27.5904C27.4699 27.3171 27.3333 26.9907 27.3333 26.6112C27.3333 26.2129 27.4699 25.8818 27.7429 25.6179C28.0163 25.354 28.3426 25.2221 28.7221 25.2221C29.1204 25.2221 29.4515 25.354 29.7154 25.6179C29.9793 25.8818 30.1112 26.2129 30.1112 26.6112C30.1112 26.9907 29.9793 27.3171 29.7154 27.5904C29.4515 27.8635 29.1204 28 28.7221 28ZM34.2779 28C33.8982 28 33.5718 27.8635 33.2987 27.5904C33.0254 27.3171 32.8888 26.9907 32.8888 26.6112C32.8888 26.2129 33.0254 25.8818 33.2987 25.6179C33.5718 25.354 33.8982 25.2221 34.2779 25.2221C34.676 25.2221 35.0069 25.354 35.2708 25.6179C35.5347 25.8818 35.6667 26.2129 35.6667 26.6112C35.6667 26.9907 35.5347 27.3171 35.2708 27.5904C35.0069 27.8635 34.676 28 34.2779 28ZM32.2779 20.1112L30.3196 18.1667L33.7083 14.7779H23.4446V12H33.7083L30.3333 8.61124L32.2779 6.66666L39 13.3887L32.2779 20.1112ZM13.7221 14.7779C13.3426 14.7779 13.0163 14.6412 12.7429 14.3679C12.4699 14.0949 12.3333 13.7685 12.3333 13.3887C12.3333 12.9907 12.4699 12.6597 12.7429 12.3958C13.0163 12.1319 13.3426 12 13.7221 12C14.1204 12 14.4515 12.1319 14.7154 12.3958C14.9793 12.6597 15.1113 12.9907 15.1113 13.3887C15.1113 13.7685 14.9793 14.0949 14.7154 14.3679C14.4515 14.6412 14.1204 14.7779 13.7221 14.7779ZM19.2779 14.7779C18.8982 14.7779 18.5718 14.6412 18.2988 14.3679C18.0254 14.0949 17.8888 13.7685 17.8888 13.3887C17.8888 12.9907 18.0254 12.6597 18.2988 12.3958C18.5718 12.1319 18.8982 12 19.2779 12C19.676 12 20.0069 12.1319 20.2708 12.3958C20.5347 12.6597 20.6667 12.9907 20.6667 13.3887C20.6667 13.7685 20.5347 14.0949 20.2708 14.3679C20.0069 14.6412 19.676 14.7779 19.2779 14.7779Z" fill="white"/>
</g>
</svg>
