            <svg width="24" height="24" viewBox="0 0 24 24" fill="none" xmlns="http://www.w3.org/2000/svg">
                <mask id="mask0_53_7276" maskUnits="userSpaceOnUse" x="0" y="0" width="24" height="24">
                <rect width="24" height="24" fill="white"/>
                </mask>
                <g mask="url(#mask0_53_7276)">
                <path d="M11.9998 6.76675C12.2499 6.76675 12.4598 6.68208 12.6293 6.51275C12.7986 6.34358 12.8833 6.13383 12.8833 5.8835C12.8833 5.63333 12.7987 5.42358 12.6295 5.25425C12.4602 5.08475 12.2504 5 12.0003 5C11.7501 5 11.5403 5.08458 11.3708 5.25375C11.2014 5.42308 11.1168 5.63283 11.1168 5.883C11.1168 6.13317 11.2013 6.343 11.3705 6.5125C11.5398 6.682 11.7496 6.76675 11.9998 6.76675ZM11.1668 14.8833H12.8333V8.7H11.1668V14.8833ZM2 22V3.66675C2 3.21675 2.16525 2.82642 2.49575 2.49575C2.82642 2.16525 3.21675 2 3.66675 2H20.3333C20.7833 2 21.1736 2.16525 21.5043 2.49575C21.8348 2.82642 22 3.21675 22 3.66675V16.3333C22 16.7833 21.8348 17.1736 21.5043 17.5043C21.1736 17.8348 20.7833 18 20.3333 18H6L2 22ZM5.28325 16.3333H20.3333V3.66675H3.66675V18.0418L5.28325 16.3333Z" fill="white"/>
                </g>
            </svg>
